<svg id="wave" style="transform:rotate(0deg); transition: 0.3s" viewBox="0 0 1440 490" version="1.1" xmlns="http://www.w3.org/2000/svg"><defs><linearGradient id="sw-gradient-0" x1="0" x2="0" y1="1" y2="0"><stop stop-color="rgba(243, 106, 62, 1)" offset="0%"></stop><stop stop-color="rgba(255, 179, 11, 1)" offset="100%"></stop></linearGradient></defs><path style="transform:translate(0, 0px); opacity:1" fill="url(#sw-gradient-0)" d="M0,294L21.8,269.5C43.6,245,87,196,131,179.7C174.5,163,218,180,262,179.7C305.5,180,349,163,393,196C436.4,229,480,310,524,310.3C567.3,310,611,229,655,220.5C698.2,212,742,278,785,253.2C829.1,229,873,114,916,106.2C960,98,1004,196,1047,212.3C1090.9,229,1135,163,1178,171.5C1221.8,180,1265,261,1309,302.2C1352.7,343,1396,343,1440,334.8C1483.6,327,1527,310,1571,294C1614.5,278,1658,261,1702,285.8C1745.5,310,1789,376,1833,359.3C1876.4,343,1920,245,1964,204.2C2007.3,163,2051,180,2095,171.5C2138.2,163,2182,131,2225,138.8C2269.1,147,2313,196,2356,187.8C2400,180,2444,114,2487,114.3C2530.9,114,2575,180,2618,220.5C2661.8,261,2705,278,2749,310.3C2792.7,343,2836,392,2880,408.3C2923.6,425,2967,408,3011,400.2C3054.5,392,3098,392,3120,392L3141.8,392L3141.8,490L3120,490C3098.2,490,3055,490,3011,490C2967.3,490,2924,490,2880,490C2836.4,490,2793,490,2749,490C2705.5,490,2662,490,2618,490C2574.5,490,2531,490,2487,490C2443.6,490,2400,490,2356,490C2312.7,490,2269,490,2225,490C2181.8,490,2138,490,2095,490C2050.9,490,2007,490,1964,490C1920,490,1876,490,1833,490C1789.1,490,1745,490,1702,490C1658.2,490,1615,490,1571,490C1527.3,490,1484,490,1440,490C1396.4,490,1353,490,1309,490C1265.5,490,1222,490,1178,490C1134.5,490,1091,490,1047,490C1003.6,490,960,490,916,490C872.7,490,829,490,785,490C741.8,490,698,490,655,490C610.9,490,567,490,524,490C480,490,436,490,393,490C349.1,490,305,490,262,490C218.2,490,175,490,131,490C87.3,490,44,490,22,490L0,490Z"></path><defs><linearGradient id="sw-gradient-1" x1="0" x2="0" y1="1" y2="0"><stop stop-color="rgba(102.34, 102.34, 102.34, 1)" offset="0%"></stop><stop stop-color="rgba(109.17, 81.869, 21.519, 1)" offset="100%"></stop></linearGradient></defs><path style="transform:translate(0, 50px); opacity:0.9" fill="url(#sw-gradient-1)" d="M0,147L21.8,155.2C43.6,163,87,180,131,204.2C174.5,229,218,261,262,261.3C305.5,261,349,229,393,245C436.4,261,480,327,524,326.7C567.3,327,611,261,655,204.2C698.2,147,742,98,785,98C829.1,98,873,147,916,187.8C960,229,1004,261,1047,236.8C1090.9,212,1135,131,1178,122.5C1221.8,114,1265,180,1309,236.8C1352.7,294,1396,343,1440,302.2C1483.6,261,1527,131,1571,81.7C1614.5,33,1658,65,1702,81.7C1745.5,98,1789,98,1833,106.2C1876.4,114,1920,131,1964,114.3C2007.3,98,2051,49,2095,49C2138.2,49,2182,98,2225,122.5C2269.1,147,2313,147,2356,147C2400,147,2444,147,2487,130.7C2530.9,114,2575,82,2618,81.7C2661.8,82,2705,114,2749,179.7C2792.7,245,2836,343,2880,375.7C2923.6,408,2967,376,3011,326.7C3054.5,278,3098,212,3120,179.7L3141.8,147L3141.8,490L3120,490C3098.2,490,3055,490,3011,490C2967.3,490,2924,490,2880,490C2836.4,490,2793,490,2749,490C2705.5,490,2662,490,2618,490C2574.5,490,2531,490,2487,490C2443.6,490,2400,490,2356,490C2312.7,490,2269,490,2225,490C2181.8,490,2138,490,2095,490C2050.9,490,2007,490,1964,490C1920,490,1876,490,1833,490C1789.1,490,1745,490,1702,490C1658.2,490,1615,490,1571,490C1527.3,490,1484,490,1440,490C1396.4,490,1353,490,1309,490C1265.5,490,1222,490,1178,490C1134.5,490,1091,490,1047,490C1003.6,490,960,490,916,490C872.7,490,829,490,785,490C741.8,490,698,490,655,490C610.9,490,567,490,524,490C480,490,436,490,393,490C349.1,490,305,490,262,490C218.2,490,175,490,131,490C87.3,490,44,490,22,490L0,490Z"></path><defs><linearGradient id="sw-gradient-2" x1="0" x2="0" y1="1" y2="0"><stop stop-color="rgba(243, 106, 62, 1)" offset="0%"></stop><stop stop-color="rgba(255, 179, 11, 1)" offset="100%"></stop></linearGradient></defs><path style="transform:translate(0, 100px); opacity:0.8" fill="url(#sw-gradient-2)" d="M0,49L21.8,65.3C43.6,82,87,114,131,163.3C174.5,212,218,278,262,310.3C305.5,343,349,343,393,359.3C436.4,376,480,408,524,351.2C567.3,294,611,147,655,106.2C698.2,65,742,131,785,204.2C829.1,278,873,359,916,351.2C960,343,1004,245,1047,171.5C1090.9,98,1135,49,1178,98C1221.8,147,1265,294,1309,367.5C1352.7,441,1396,441,1440,416.5C1483.6,392,1527,343,1571,302.2C1614.5,261,1658,229,1702,228.7C1745.5,229,1789,261,1833,236.8C1876.4,212,1920,131,1964,138.8C2007.3,147,2051,245,2095,261.3C2138.2,278,2182,212,2225,179.7C2269.1,147,2313,147,2356,179.7C2400,212,2444,278,2487,302.2C2530.9,327,2575,310,2618,318.5C2661.8,327,2705,359,2749,375.7C2792.7,392,2836,392,2880,383.8C2923.6,376,2967,359,3011,326.7C3054.5,294,3098,245,3120,220.5L3141.8,196L3141.8,490L3120,490C3098.2,490,3055,490,3011,490C2967.3,490,2924,490,2880,490C2836.4,490,2793,490,2749,490C2705.5,490,2662,490,2618,490C2574.5,490,2531,490,2487,490C2443.6,490,2400,490,2356,490C2312.7,490,2269,490,2225,490C2181.8,490,2138,490,2095,490C2050.9,490,2007,490,1964,490C1920,490,1876,490,1833,490C1789.1,490,1745,490,1702,490C1658.2,490,1615,490,1571,490C1527.3,490,1484,490,1440,490C1396.4,490,1353,490,1309,490C1265.5,490,1222,490,1178,490C1134.5,490,1091,490,1047,490C1003.6,490,960,490,916,490C872.7,490,829,490,785,490C741.8,490,698,490,655,490C610.9,490,567,490,524,490C480,490,436,490,393,490C349.1,490,305,490,262,490C218.2,490,175,490,131,490C87.3,490,44,490,22,490L0,490Z"></path></svg>